<svg xmlns="http://www.w3.org/2000/svg" viewBox="0 0 512 512">
  <!-- macOS-style rounded square background -->
  <rect width="512" height="512" rx="110" fill="#111114"/>

  <!-- Spider icon — scaled from 24×24 to 340×340, centered at (86,86) -->
  <g transform="translate(86 56) scale(14.167)"
     stroke="white" stroke-width="1.15" stroke-linecap="round" stroke-linejoin="round" fill="none">
    <!-- Left legs -->
    <path d="M5 4v2l5 5"/>
    <path d="M2.5 9.5l1.5 1.5h6"/>
    <path d="M4 19v-2l6 -6"/>
    <!-- Right legs -->
    <path d="M19 4v2l-5 5"/>
    <path d="M21.5 9.5l-1.5 1.5h-6"/>
    <path d="M20 19v-2l-6 -6"/>
    <!-- Body (abdomen) -->
    <path d="M8 15a4 4 0 1 0 8 0a4 4 0 1 0 -8 0"/>
    <!-- Head -->
    <path d="M10 9a2 2 0 1 0 4 0a2 2 0 1 0 -4 0"/>
  </g>
</svg>
